<?xml version="1.0" encoding="utf-8"?>
<!-- Generator: Adobe Illustrator 26.0.1, SVG Export Plug-In . SVG Version: 6.00 Build 0)  -->
<svg version="1.1" id="Layer_1" xmlns="http://www.w3.org/2000/svg" xmlns:xlink="http://www.w3.org/1999/xlink" x="0px" y="0px"
	 viewBox="0 0 116 125" style="enable-background:new 0 0 116 125;" xml:space="preserve">
<style type="text/css">
	.st0{fill-rule:evenodd;clip-rule:evenodd;fill:#30afe3;}
</style>
<g>
	<path class="st0" d="M106,16.5C48.6,23.6-3.6,65,54.6,78.4c-37-12.3-13.2-36.6,42.8-47.1L106,16.5z"/>
	<path class="st0" d="M115.4,0.3c-26,3.8-76.2,22.4-85.8,47.3c1.7-2.2,3.6-4.2,5.6-6c9.6-8.7,24.2-16,39.2-20.9
		c10.8-3.6,22-6,33.3-7.2L115.4,0.3z"/>
	<path class="st0" d="M10.4,108.7c57.6-6.2,110.9-46.8,53-61.1C100,60.5,75.6,84.3,19.4,94L10.4,108.7z"/>
	<path class="st0" d="M0.5,124.7c26-3.4,76.7-21.2,87-45.8c-1.7,2.1-3.7,4.1-5.8,5.9C71.9,93.2,57.2,100.3,42,105
		c-10.9,3.4-22.1,5.6-33.4,6.6L0.5,124.7z"/>
</g>
</svg>
